<svg width="73" height="50" viewBox="0 0 73 50" fill="none" xmlns="http://www.w3.org/2000/svg">
<g clip-path="url(#clip0_170_1143)">
<path d="M69.9184 25.3416C64.0714 28.3233 59.6193 28.834 56.9552 28.2845C61.5215 24.2425 63.8452 20.0498 63.3574 16.6853C63.0592 14.6323 61.79 13.0226 59.7815 12.1544C57.7983 11.301 55.31 11.694 53.1223 13.2111C49.6824 15.5966 47.7711 19.9618 48.0144 24.8857C48.0624 25.8203 48.2178 26.7022 48.4771 27.5248C47.4558 28.1166 46.415 28.6546 45.356 29.1767C44.5723 27.7007 43.5041 26.4098 42.1925 25.3324C45.1389 23.5754 46.4276 21.1145 46.3099 18.8125C46.1591 15.8502 43.5566 12.8536 38.0798 12.8399C37.9621 12.8399 37.8456 12.8376 37.7279 12.8376C34.8935 12.8376 32.1174 12.9301 29.3447 13.1255C27.4951 13.2534 25.6489 13.4294 23.7844 13.6498C23.9992 15.2767 24.2585 17.2622 24.3865 19.1815C26.2498 18.961 28.0994 18.7908 29.957 18.6686C32.6189 18.4904 35.2991 18.4092 38.0638 18.4207C39.8825 18.423 40.6103 18.953 40.7337 19.121C40.6697 19.6568 39.0211 21.5201 34.0835 22.0388L33.8573 27.5545C36.8928 28.1291 39.1274 29.5435 40.3155 31.6021C37.7907 32.8542 35.2214 34.2892 32.6555 36.3078C29.7845 38.5642 28.144 41.2706 28.0412 43.9268C27.9737 45.6781 28.5987 47.2547 29.8039 48.3652C30.9167 49.3888 32.4932 50 34.2869 50C36.5158 50 39.0828 49.0598 41.5117 46.8114C45.1412 43.4527 47.0468 39.0006 46.8423 34.657C48.4737 33.8733 50.1291 33.045 51.7742 32.0603C52.0004 32.2191 52.2346 32.3699 52.4768 32.5092C57.0682 35.1711 64.5341 34.3474 72.4512 30.3135L69.915 25.3427L69.9184 25.3416ZM37.7256 42.7135C35.4887 44.7859 33.9624 44.4957 33.622 44.2866C33.5351 43.8845 33.9487 42.3902 36.1045 40.6937C37.7028 39.4358 39.3205 38.4362 40.9724 37.5417C40.4698 39.397 39.3604 41.2043 37.7256 42.7135ZM53.5735 23.8244C53.6352 20.4291 55.2141 18.6971 55.9281 18.0837C56.7175 17.4085 57.3424 17.2885 57.5515 17.2885C57.5686 17.2885 57.5823 17.2885 57.5961 17.2908C57.764 17.3662 57.8188 17.4245 57.8223 17.4245C58.0428 17.9237 57.3596 20.3811 53.5735 23.8244Z" fill="#FF0000"/>
<path d="M17.7924 20.1641C17.4634 18.0722 17.324 15.9405 17.2429 14.6095C15.4378 14.9248 13.6019 15.2813 11.7249 15.6868C9.74391 16.1107 7.71837 16.5882 5.62656 17.1183C5.77736 15.5315 6.16465 14.0749 6.79528 12.7748C8.69744 8.85276 12.7817 6.41137 18.9337 5.52484L18.1363 0C8.05082 1.4589 3.67413 6.42736 1.77768 10.3414C-1.62336 17.3525 -0.111911 27.0712 6.0367 37.7028L10.8681 34.9107C8.34671 30.55 6.70845 26.4555 5.983 22.7871C8.17534 22.2147 10.282 21.7075 12.3235 21.2551C14.1926 20.8449 16.009 20.4828 17.7913 20.1641H17.7924Z" fill="#FF0000"/>
<path d="M30.2403 21.3453C28.3827 21.4676 26.5331 21.6378 24.6698 21.8583C24.9074 25.3793 24.7086 28.6707 23.0018 29.0728C21.239 29.4909 20.6198 29.0305 20.3856 28.858C19.1724 27.9543 18.4835 25.4238 18.0756 22.8408C16.2934 23.1584 14.4769 23.5217 12.6079 23.9318C13.3082 28.256 14.5798 31.4925 17.0577 33.333C18.3909 34.3257 19.9504 34.8227 21.7109 34.8227C22.5277 34.8227 23.388 34.7164 24.2882 34.5017C26.7296 33.9247 29.7479 31.9997 30.2609 26.1025C30.3923 24.6047 30.358 22.9859 30.2415 21.3465L30.2403 21.3453Z" fill="#FF0000"/>
</g>
<defs>
<clipPath id="clip0_170_1143">
<rect width="72.4546" height="50" fill="white"/>
</clipPath>
</defs>
</svg>
